<svg width="22" height="24" viewBox="0 0 22 24" fill="none" xmlns="http://www.w3.org/2000/svg">
    <path d="M2.08374 6H4.13958M4.13958 6H20.5863M4.13958 6V20C4.13958 20.5304 4.35618 21.0391 4.74173 21.4142C5.12727 21.7893 5.65018 22 6.19543 22H16.4746C17.0199 22 17.5428 21.7893 17.9283 21.4142C18.3139 21.0391 18.5305 20.5304 18.5305 20V6M7.22335 6V4C7.22335 3.46957 7.43994 2.96086 7.82549 2.58579C8.21103 2.21071 8.73395 2 9.27919 2H13.3909C13.9361 2 14.459 2.21071 14.8446 2.58579C15.2301 2.96086 15.4467 3.46957 15.4467 4V6M9.27919 11V17M13.3909 11V17" stroke="#1E1E1E" stroke-width="2.5" stroke-linecap="round" stroke-linejoin="round"/>
</svg>
